Coordinates
version=1
nRows=16
nColumns=40
inDegrees=yes

Units are S.I. units (second, meters, Newtons, ...)
If the header above contains a line with 'inDegrees', this indicates whether rotational values are in degrees (yes) or radians (no).

endheader
time	pelvis_tilt	pelvis_list	pelvis_rotation	pelvis_tx	pelvis_ty	pelvis_tz	hip_flexion_r	hip_adduction_r	hip_rotation_r	knee_angle_r	knee_angle_r_beta	ankle_angle_r	subtalar_angle_r	mtp_angle_r	hip_flexion_l	hip_adduction_l	hip_rotation_l	knee_angle_l	knee_angle_l_beta	ankle_angle_l	subtalar_angle_l	mtp_angle_l	lumbar_extension	lumbar_bending	lumbar_rotation	arm_flex_r	arm_add_r	arm_rot_r	elbow_flex_r	pro_sup_r	wrist_flex_r	wrist_dev_r	arm_flex_l	arm_add_l	arm_rot_l	elbow_flex_l	pro_sup_l	wrist_flex_l	wrist_dev_l
      4.00000000	     -4.90364884	     -1.24022082	      0.35527997	     -0.31489529	      0.93642940	     -1.02571206	     28.34296015	     -7.10981753	     -4.58932010	    103.91468660	      1.81365342	     -8.29143162	      0.00000000	      0.00000000	     14.89107888	      2.94866396	     -8.44100125	     17.98033206	      0.31381600	     -3.26699885	      0.00000000	      0.00000000	    -10.03741252	     -1.44390556	      1.91251721	     85.24861502	    -14.04670890	     23.97916224	     17.92003066	     83.57566418	      0.00000000	      0.00000000	     84.59746800	    -21.92914817	     35.11091655	     31.82902084	     84.26266415	      0.00000000	      0.00000000
      4.00500000	     -5.07248221	     -1.34273618	      0.36244217	     -0.31542170	      0.93597493	     -1.02555088	     28.42366036	     -6.93800599	     -4.63858567	    103.81623177	      1.81193506	     -8.37468573	      0.00000000	      0.00000000	     15.35071433	      2.77331865	     -8.51446291	     18.49002168	      0.32271176	     -3.10852506	      0.00000000	      0.00000000	     -9.96377450	     -1.33942778	      1.92196235	     85.34680331	    -13.95658091	     23.12347192	     17.89909989	     84.93112623	      0.00000000	      0.00000000	     84.52403982	    -21.67072648	     33.86830202	     31.68787244	     85.41233312	      0.00000000	      0.00000000
      4.01000000	     -5.17266134	     -1.34469279	      0.36878344	     -0.31590689	      0.93557266	     -1.02542111	     28.42745814	     -6.87071827	     -4.62610376	    103.73740510	      1.81055928	     -8.37931103	      0.00000000	      0.00000000	     15.65988277	      2.73377467	     -8.55301406	     18.83265949	      0.32869192	     -2.91001090	      0.00000000	      0.00000000	     -9.97007078	     -1.34533857	      1.91525843	     85.48941395	    -13.97885617	     23.51806942	     17.92103898	     84.52766680	      0.00000000	      0.00000000	     84.70115297	    -21.76156779	     34.31042360	     31.73122895	     85.46615061	      0.00000000	      0.00000000
      4.01500000	     -5.23593418	     -1.30469224	      0.33652239	     -0.31633986	      0.93523877	     -1.02529566	     28.41408279	     -6.85511370	     -4.56225630	    103.68399894	      1.80962716	     -8.36120308	      0.00000000	      0.00000000	     15.86782066	      2.73220588	     -8.65280090	     19.04497483	      0.33239752	     -2.95187871	      0.00000000	      0.00000000	    -10.01301737	     -1.41019298	      1.95006078	     85.58878876	    -13.96994059	     23.37690352	     17.94639352	     84.73788652	      0.00000000	      0.00000000	     84.78925905	    -21.66806856	     34.08267015	     31.67549177	     85.55973303	      0.00000000	      0.00000000
      4.02000000	     -5.29933349	     -1.32565582	      0.35847541	     -0.31681305	      0.93489594	     -1.02520288	     28.36304710	     -6.77268471	     -4.57687842	    103.58716383	      1.80793707	     -8.37797777	      0.00000000	      0.00000000	     16.11408415	      2.68901881	     -8.58490869	     19.32230450	      0.33723783	     -2.85611715	      0.00000000	      0.00000000	    -10.05611178	     -1.39575895	      1.94921518	     85.74354601	    -13.94982713	     23.33196400	     17.86579144	     84.87163124	      0.00000000	      0.00000000	     84.88422593	    -21.59927391	     33.98053804	     31.62119009	     85.45333726	      0.00000000	      0.00000000
      4.02500000	     -5.35619741	     -1.32190191	      0.33420165	     -0.31721092	      0.93453868	     -1.02502710	     28.30474895	     -6.70606335	     -4.55045922	    103.50667683	      1.80653231	     -8.29819450	      0.00000000	      0.00000000	     16.33852945	      2.64815609	     -8.62484239	     19.60423981	      0.34215853	     -2.75784952	      0.00000000	      0.00000000	    -10.10377848	     -1.41624904	      1.95810737	     85.88060457	    -13.93766113	     23.48025881	     17.87985695	     84.82978564	      0.00000000	      0.00000000	     85.02422669	    -21.62636730	     34.10107424	     31.61167494	     85.47126126	      0.00000000	      0.00000000
      4.03000000	     -5.44528596	     -1.31242917	      0.31902891	     -0.31772970	      0.93411431	     -1.02492274	     28.31709223	     -6.63249305	     -4.50810940	    103.45967915	      1.80571204	     -8.30758603	      0.00000000	      0.00000000	     16.63756189	      2.61647956	     -8.70497677	     19.92412986	      0.34774167	     -2.68276723	      0.00000000	      0.00000000	    -10.13255963	     -1.43479023	      1.97478044	     86.03746991	    -13.93092583	     23.61015502	     17.83780820	     84.74124299	      0.00000000	      0.00000000	     85.17311618	    -21.62052359	     34.20315929	     31.60006554	     85.49717514	      0.00000000	      0.00000000
      4.03500000	     -5.54179296	     -1.28299878	      0.33584668	     -0.31826640	      0.93365618	     -1.02488044	     28.31064178	     -6.62622216	     -4.50480861	    103.41735614	      1.80497337	     -8.18633089	      0.00000000	      0.00000000	     16.95286125	      2.61369167	     -8.72429215	     20.28110604	      0.35397208	     -2.55237200	      0.00000000	      0.00000000	    -10.14474797	     -1.46628785	      1.91351766	     86.22396034	    -13.78631868	     23.57678296	     17.68490675	     83.92391800	      0.00000000	      0.00000000	     85.31509194	    -21.57585314	     34.08760856	     31.42673069	     85.34136173	      0.00000000	      0.00000000
      4.04000000	     -5.66503169	     -1.28861059	      0.29645685	     -0.31876636	      0.93320445	     -1.02472103	     28.37421783	     -6.54962410	     -4.44540852	    103.34311489	      1.80367761	     -8.45794613	      0.00000000	      0.00000000	     17.27197121	      2.55650775	     -8.84206283	     20.58335868	      0.35924738	     -2.45495054	      0.00000000	      0.00000000	    -10.13120662	     -1.48120263	      1.97852582	     86.33516723	    -13.92381714	     24.17510847	     17.82480291	     83.89165985	      0.00000000	      0.00000000	     85.49237451	    -21.69115648	     34.67613794	     31.56211628	     85.40051416	      0.00000000	      0.00000000
      4.04500000	     -5.76596172	     -1.28198321	      0.30168371	     -0.31927790	      0.93275370	     -1.02465403	     28.37365310	     -6.50083302	     -4.42222947	    103.26471879	      1.80230934	     -8.45360695	      0.00000000	      0.00000000	     17.57920314	      2.52262715	     -8.87733861	     20.91730887	      0.36507591	     -2.33835591	      0.00000000	      0.00000000	    -10.14897079	     -1.47804763	      1.93709657	     86.51126450	    -13.85724955	     24.44047036	     17.78075005	     83.35297807	      0.00000000	      0.00000000	     85.64292857	    -21.76964814	     34.92283680	     31.54188971	     85.33461443	      0.00000000	      0.00000000
      4.05000000	     -5.76262837	     -1.22469593	      0.29814946	     -0.31975968	      0.93247138	     -1.02460551	     28.25497354	     -6.53698575	     -4.40292456	    103.21264723	      1.80140052	     -8.45564902	      0.00000000	      0.00000000	     17.66093031	      2.58988696	     -8.72080960	     20.99745310	      0.36647469	     -2.31827593	      0.00000000	      0.00000000	    -10.28519117	     -1.55796661	      1.96180646	     86.60378707	    -13.84805422	     23.60193455	     17.85185379	     84.90675325	      0.00000000	      0.00000000	     85.70043765	    -21.53371472	     34.20354999	     31.43710307	     85.43022244	      0.00000000	      0.00000000
      4.05500000	     -5.88056526	     -1.21464964	      0.30910612	     -0.32029785	      0.93197306	     -1.02455361	     28.28217908	     -6.52318911	     -4.41768923	    103.15059394	      1.80031749	     -8.49841429	      0.00000000	      0.00000000	     17.97777637	      2.56955560	     -8.73462507	     21.31153676	      0.37195649	     -2.20311657	      0.00000000	      0.00000000	    -10.29247236	     -1.57281096	      1.92849320	     86.76343879	    -13.87242603	     24.10020668	     17.88791385	     84.38668821	      0.00000000	      0.00000000	     85.90540086	    -21.62639999	     34.69059985	     31.45996029	     85.29898632	      0.00000000	      0.00000000
      4.06000000	     -5.94162411	     -1.18744392	      0.27097914	     -0.32077246	      0.93154058	     -1.02439223	     28.24262406	     -6.47444229	     -4.35782903	    103.09808154	      1.79940098	     -8.45595078	      0.00000000	      0.00000000	     18.24960740	      2.52573044	     -8.92899344	     21.66479178	      0.37812195	     -2.12443300	      0.00000000	      0.00000000	    -10.33873438	     -1.62546249	      1.99150332	     86.87489908	    -13.88808301	     23.94125017	     17.92556558	     84.62123944	      0.00000000	      0.00000000	     86.00036014	    -21.45620157	     34.28272570	     31.30882110	     85.51644011	      0.00000000	      0.00000000
      4.06500000	     -6.06268368	     -1.15728889	      0.22684386	     -0.32131254	      0.93101755	     -1.02422438	     28.28989792	     -6.43567069	     -4.29728971	    103.05857955	      1.79871154	     -8.49195489	      0.00000000	      0.00000000	     18.54353913	      2.51259620	     -8.95326976	     21.92531811	      0.38266899	     -2.02306796	      0.00000000	      0.00000000	    -10.33000689	     -1.66892590	      2.00875627	     87.04183721	    -13.83669941	     24.06311838	     17.86270028	     84.32472617	      0.00000000	      0.00000000	     86.18472557	    -21.67046764	     35.00622754	     31.46826501	     85.33137753	      0.00000000	      0.00000000
      4.07000000	     -6.14663766	     -1.12195331	      0.21580137	     -0.32187399	      0.93066080	     -1.02408846	     28.28036151	     -6.41818906	     -4.25477327	    102.99405048	      1.79758529	     -8.55851622	      0.00000000	      0.00000000	     18.75856751	      2.51831572	     -8.97254465	     22.07893885	      0.38535018	     -1.99915347	      0.00000000	      0.00000000	    -10.35194675	     -1.71517229	      2.00110519	     87.14523701	    -13.72765964	     23.60680845	     17.80822160	     84.77824269	      0.00000000	      0.00000000	     86.21251395	    -21.46421278	     34.19671542	     31.24552775	     85.38450073	      0.00000000	      0.00000000
      4.07500000	     -6.24966925	     -1.15179762	      0.14049730	     -0.32240269	      0.93013654	     -1.02384518	     28.30179103	     -6.28653592	     -4.19040949	    102.94780554	      1.79677816	     -8.49535977	      0.00000000	      0.00000000	     19.05192360	      2.41491463	     -9.07361432	     22.39172901	      0.39080940	     -1.85685248	      0.00000000	      0.00000000	    -10.36160102	     -1.70683334	      2.13924701	     87.25836947	    -13.80634808	     23.55493568	     17.88737871	     84.80957887	      0.00000000	      0.00000000	     86.33853218	    -21.38736744	     34.25098625	     31.25457556	     85.28845478	      0.00000000	      0.00000000
